<svg width="820" height="210" viewBox="0 0 820 210" fill="none" xmlns="http://www.w3.org/2000/svg">
<path d="M280.467 109.833C280.467 110.733 280.114 111.548 279.406 112.276C274.626 116.092 269.234 118 263.232 118C256.115 118 250.049 115.492 245.032 110.476C240.016 105.46 237.508 99.3929 237.508 92.2759C237.508 85.1804 240.016 79.1245 245.032 74.1083C250.07 69.0706 256.137 66.5518 263.232 66.5518C269.32 66.5518 274.819 68.5562 279.728 72.5648C280.328 73.1222 280.628 73.9046 280.628 74.9122C280.628 75.4052 280.542 75.8554 280.371 76.2627C280.199 76.67 279.953 77.0344 279.631 77.3559C279.331 77.6561 278.967 77.8919 278.538 78.0634C278.131 78.2349 277.691 78.3206 277.22 78.3206C276.341 78.3206 275.558 77.999 274.872 77.3559C273.243 76.0697 271.442 75.0836 269.47 74.3977C267.52 73.7117 265.44 73.3687 263.232 73.3687C258.002 73.3687 253.532 75.223 249.824 78.9315C246.158 82.5972 244.325 87.0453 244.325 92.2759C244.325 97.5279 246.158 101.987 249.824 105.652C253.511 109.34 257.98 111.183 263.232 111.183C267.112 111.183 270.585 110.165 273.65 108.128V98.1603H264.776C263.811 98.1603 262.996 97.8387 262.332 97.1956C261.689 96.5311 261.367 95.7165 261.367 94.7519C261.367 94.2802 261.453 93.8408 261.624 93.4335C261.796 93.0048 262.032 92.6403 262.332 92.3402C262.653 92.0187 263.018 91.7722 263.425 91.6007C263.832 91.4292 264.283 91.3434 264.776 91.3434H277.091C277.541 91.3434 277.97 91.4399 278.377 91.6328C278.785 91.8043 279.138 92.0508 279.438 92.3724C279.76 92.6725 280.006 93.0369 280.178 93.4657C280.371 93.873 280.467 94.3017 280.467 94.7519V109.833ZM292.397 85.3304V85.9735C294.005 84.6873 295.752 83.7012 297.638 83.0152C299.525 82.3293 301.54 81.9863 303.683 81.9863C304.627 81.9863 305.634 82.0506 306.706 82.1792C307.799 82.3078 308.796 82.5436 309.696 82.8866C310.618 83.2082 311.379 83.6583 311.979 84.2371C312.58 84.8159 312.88 85.5662 312.88 86.488C312.88 86.9596 312.783 87.3991 312.59 87.8064C312.419 88.2137 312.183 88.5781 311.883 88.8996C311.583 89.1997 311.229 89.4355 310.822 89.607C310.414 89.7785 309.975 89.8643 309.503 89.8643C309.096 89.8643 308.624 89.7464 308.089 89.5106C306.738 88.9747 305.27 88.7067 303.683 88.7067C302.118 88.7067 300.65 89.0068 299.278 89.607C297.906 90.1858 296.706 90.9897 295.677 92.0187C294.669 93.0262 293.865 94.2159 293.265 95.5879C292.686 96.9598 292.397 98.4283 292.397 99.9931V114.656C292.397 115.578 292.065 116.371 291.4 117.035C290.757 117.678 289.975 118 289.053 118C288.11 118 287.306 117.678 286.641 117.035C285.998 116.371 285.676 115.578 285.676 114.656V85.3304C285.676 84.4086 285.998 83.6262 286.641 82.9831C287.306 82.3185 288.11 81.9863 289.053 81.9863C289.975 81.9863 290.757 82.3185 291.4 82.9831C292.065 83.6262 292.397 84.4086 292.397 85.3304ZM352.688 99.9931C352.688 105.009 350.93 109.254 347.414 112.727C343.856 116.242 339.611 118 334.681 118C329.708 118 325.463 116.242 321.947 112.727C318.432 109.211 316.674 104.966 316.674 99.9931C316.674 95.0198 318.432 90.7753 321.947 87.2597C325.463 83.7441 329.708 81.9863 334.681 81.9863C339.611 81.9863 343.856 83.7441 347.414 87.2597C349.172 89.0175 350.48 90.9576 351.337 93.0798C352.216 95.202 352.666 97.5065 352.688 99.9931ZM334.681 88.7067C333.095 88.7067 331.615 89.0068 330.243 89.607C328.871 90.2073 327.682 91.0219 326.674 92.0508C325.667 93.0584 324.863 94.2481 324.263 95.62C323.684 96.992 323.394 98.4497 323.394 99.9931C323.394 101.537 323.684 102.994 324.263 104.366C324.863 105.738 325.667 106.939 326.674 107.968C327.682 108.975 328.871 109.779 330.243 110.379C331.615 110.979 333.095 111.28 334.681 111.28C336.246 111.28 337.714 110.979 339.086 110.379C340.458 109.779 341.648 108.964 342.655 107.935C343.684 106.906 344.488 105.717 345.067 104.366C345.667 102.994 345.967 101.537 345.967 99.9931C345.967 98.4497 345.667 97.0027 345.067 95.6522C344.488 94.2802 343.684 93.0798 342.655 92.0508C341.648 91.0219 340.458 90.2073 339.086 89.607C337.714 89.0068 336.246 88.7067 334.681 88.7067ZM380.856 81.9863C382.442 81.9863 383.514 82.8116 384.071 84.4622L390.599 104.045L397.351 83.8513C397.523 83.2939 397.866 82.8437 398.38 82.5008C398.895 82.1578 399.559 81.9863 400.374 81.9863C400.845 81.9863 401.285 82.072 401.692 82.2435C402.099 82.415 402.453 82.6615 402.753 82.9831C403.053 83.2832 403.289 83.6369 403.461 84.0442C403.654 84.4515 403.75 84.8802 403.75 85.3304C403.75 85.7377 403.664 86.1664 403.493 86.6166L393.75 115.846C393.557 116.467 393.203 116.982 392.689 117.389C392.174 117.796 391.477 118 390.599 118C389.848 118 389.184 117.786 388.605 117.357C388.026 116.928 387.651 116.424 387.48 115.846L380.856 95.9738L374.232 115.846C374.039 116.467 373.653 116.982 373.074 117.389C372.495 117.796 371.831 118 371.08 118C370.33 118 369.666 117.796 369.087 117.389C368.529 116.982 368.144 116.467 367.929 115.846L358.186 86.6166C358.036 86.145 357.961 85.7163 357.961 85.3304C357.961 84.8802 358.047 84.4515 358.218 84.0442C358.39 83.6369 358.626 83.2832 358.926 82.9831C359.226 82.6615 359.58 82.415 359.987 82.2435C360.394 82.072 360.834 81.9863 361.305 81.9863C362.077 81.9863 362.72 82.1685 363.235 82.5329C363.77 82.8973 364.135 83.3368 364.328 83.8513L371.08 104.013L377.608 84.4622C378.165 82.8116 379.248 81.9863 380.856 81.9863Z" fill="#FF007A"/>
<path d="M201.412 18.9603C201.412 18.0171 201.744 17.2132 202.408 16.5486C203.073 15.8841 203.877 15.5518 204.82 15.5518C205.763 15.5518 206.567 15.8841 207.232 16.5486C207.896 17.2132 208.229 18.0171 208.229 18.9603V60.1831H232.088C233.031 60.1831 233.835 60.5154 234.499 61.1799C235.164 61.8445 235.496 62.6483 235.496 63.5916C235.496 64.5348 235.164 65.3387 234.499 66.0032C233.835 66.6677 233.031 67 232.088 67H204.82C204.327 67 203.877 66.9143 203.47 66.7428C203.062 66.5713 202.698 66.3355 202.376 66.0353C202.076 65.7138 201.84 65.3494 201.669 64.9421C201.497 64.5348 201.412 64.0846 201.412 63.5916V18.9603ZM266.365 45.649C266.001 44.47 265.454 43.3982 264.725 42.4335C264.018 41.4474 263.182 40.6114 262.217 39.9254C261.274 39.218 260.223 38.6714 259.066 38.2855C257.93 37.8996 256.751 37.7067 255.529 37.7067C254.307 37.7067 253.117 37.8996 251.959 38.2855C250.802 38.6714 249.741 39.218 248.776 39.9254C247.811 40.6114 246.975 41.4474 246.268 42.4335C245.561 43.3982 245.035 44.47 244.692 45.649H266.365ZM264.918 56.8711C265.883 56.8711 266.676 57.1927 267.297 57.8358C267.941 58.4575 268.262 59.2506 268.262 60.2153C268.262 61.1585 267.941 61.9624 267.297 62.6269C263.975 65.5423 260.052 67 255.529 67C250.555 67 246.311 65.2422 242.795 61.7266C239.28 58.2109 237.522 53.9665 237.522 48.9931C237.522 44.0198 239.28 39.7753 242.795 36.2597C246.311 32.7441 250.555 30.9863 255.529 30.9863C260.459 30.9863 264.704 32.7441 268.262 36.2597C270.02 37.9961 271.338 39.9361 272.217 42.0798C273.096 44.202 273.536 46.5065 273.536 48.9931C273.536 49.9578 273.203 50.7617 272.539 51.4048C271.896 52.0264 271.102 52.3373 270.159 52.3373H244.692C245.057 53.5163 245.593 54.5988 246.3 55.5849C247.008 56.5496 247.833 57.3856 248.776 58.093C249.741 58.779 250.791 59.3149 251.927 59.7008C253.085 60.0867 254.285 60.2796 255.529 60.2796C256.944 60.2796 258.24 60.0652 259.419 59.6365C260.598 59.2077 261.692 58.5646 262.699 57.7072C263.342 57.1713 264.082 56.8926 264.918 56.8711ZM281.832 30.9863H283.343V18.896C283.343 17.9742 283.664 17.1917 284.308 16.5486C284.972 15.8841 285.776 15.5518 286.719 15.5518C287.641 15.5518 288.423 15.8841 289.066 16.5486C289.731 17.1917 290.063 17.9742 290.063 18.896V30.9863H294.083C295.004 30.9863 295.787 31.3185 296.43 31.9831C297.073 32.6262 297.395 33.4086 297.395 34.3304C297.395 35.2736 297.073 36.0775 296.43 36.742C295.787 37.3851 295.004 37.7067 294.083 37.7067H290.063V53.8807C290.063 58.1466 292.207 60.2796 296.494 60.2796C297.416 60.2796 298.199 60.6119 298.842 61.2764C299.485 61.9195 299.806 62.7019 299.806 63.6237C299.806 64.5669 299.485 65.3708 298.842 66.0353C298.199 66.6784 297.416 67 296.494 67C287.727 67 283.343 62.6269 283.343 53.8807V37.7067H281.832C280.931 37.7067 280.149 37.3851 279.484 36.742C278.841 36.0775 278.52 35.2736 278.52 34.3304C278.52 33.4086 278.841 32.6262 279.484 31.9831C280.149 31.3185 280.931 30.9863 281.832 30.9863ZM310.964 49.8613C308.949 49.0896 307.534 48.2964 306.72 47.4818H306.752C305.123 45.8312 304.308 43.8912 304.308 41.6618C304.308 40.0326 304.737 38.5642 305.594 37.2565C306.473 35.9274 307.609 34.802 309.003 33.8802C310.396 32.9585 311.961 32.251 313.697 31.758C315.455 31.2435 317.213 30.9863 318.971 30.9863C324.33 30.9863 328.928 33.1407 332.765 37.4495C333.215 38.0068 333.441 38.6821 333.441 39.4752C333.441 40.4399 333.119 41.2438 332.476 41.8869C331.854 42.5085 331.061 42.8194 330.096 42.8194C329.41 42.8194 328.821 42.6264 328.328 42.2406C327.856 41.8547 327.395 41.4367 326.945 40.9865C324.759 38.8 322.1 37.7067 318.971 37.7067C315.884 37.7067 313.419 38.6499 311.575 40.5363C311.232 40.8793 311.061 41.3509 311.061 41.9512C311.061 42.5514 311.339 42.9587 311.897 43.1731L326.945 48.125C329.046 48.9395 330.461 49.7327 331.19 50.5044H331.157C332.787 52.1551 333.601 54.0951 333.601 56.3245C333.601 57.9751 333.162 59.4543 332.283 60.7619C331.425 62.0696 330.3 63.195 328.907 64.1382C327.513 65.06 325.948 65.7674 324.212 66.2604C322.476 66.7535 320.729 67 318.971 67C313.569 67 308.97 64.867 305.176 60.6011C304.705 59.9795 304.469 59.2828 304.469 58.5111C304.469 57.5464 304.78 56.7532 305.401 56.1316C306.044 55.4885 306.848 55.1669 307.813 55.1669C308.52 55.1669 309.121 55.3813 309.614 55.81C310.107 56.2173 310.557 56.6139 310.964 56.9998C313.151 59.1863 315.82 60.2796 318.971 60.2796C322.036 60.2796 324.501 59.3149 326.366 57.3856C326.688 57.0212 326.849 56.5817 326.849 56.0673C326.849 55.467 326.559 55.049 325.981 54.8132L310.964 49.8613Z" fill="#FF007A"/>
<path d="M459.293 175.993C459.293 177.537 459.582 178.994 460.161 180.366C460.761 181.738 461.565 182.939 462.573 183.968C463.58 184.975 464.77 185.779 466.142 186.379C467.514 186.979 468.993 187.28 470.579 187.28C472.144 187.28 473.613 186.979 474.985 186.379C476.356 185.779 477.546 184.964 478.554 183.935C479.583 182.906 480.387 181.717 480.965 180.366C481.566 178.994 481.866 177.537 481.866 175.993C481.866 174.45 481.566 173.003 480.965 171.652C480.387 170.28 479.583 169.08 478.554 168.051C477.546 167.022 476.356 166.207 474.985 165.607C473.613 165.007 472.144 164.707 470.579 164.707C468.993 164.707 467.514 165.007 466.142 165.607C464.77 166.207 463.58 167.022 462.573 168.051C461.565 169.058 460.761 170.248 460.161 171.62C459.582 172.992 459.293 174.45 459.293 175.993ZM470.579 194C466.27 194 462.508 192.682 459.293 190.045V206.09C459.293 207.055 458.961 207.848 458.296 208.47C457.653 209.113 456.86 209.434 455.917 209.434C454.952 209.434 454.148 209.113 453.505 208.47C452.883 207.848 452.572 207.055 452.572 206.09V175.993C452.572 171.02 454.33 166.775 457.846 163.26C461.361 159.744 465.606 157.986 470.579 157.986C475.51 157.986 479.754 159.744 483.313 163.26C485.071 164.996 486.389 166.936 487.268 169.08C488.147 171.202 488.586 173.506 488.586 175.993C488.586 181.009 486.828 185.254 483.313 188.727C481.512 190.506 479.551 191.835 477.428 192.714C475.328 193.571 473.044 194 470.579 194ZM511.738 164.707C510.151 164.707 508.672 165.007 507.3 165.607C505.928 166.207 504.739 167.022 503.731 168.051C502.724 169.058 501.92 170.248 501.32 171.62C500.741 172.992 500.451 174.45 500.451 175.993C500.451 177.537 500.741 178.994 501.32 180.366C501.92 181.738 502.724 182.939 503.731 183.968C504.739 184.975 505.928 185.779 507.3 186.379C508.672 186.979 510.151 187.28 511.738 187.28C513.303 187.28 514.771 186.979 516.143 186.379C517.515 185.779 518.705 184.964 519.712 183.935C520.741 182.906 521.545 181.717 522.124 180.366C522.724 178.994 523.024 177.537 523.024 175.993C523.024 174.45 522.724 173.003 522.124 171.652C521.545 170.28 520.741 169.08 519.712 168.051C518.705 167.022 517.515 166.207 516.143 165.607C514.771 165.007 513.303 164.707 511.738 164.707ZM523.024 190.656V190.013C521.416 191.299 519.669 192.285 517.783 192.971C515.897 193.657 513.881 194 511.738 194C506.764 194 502.52 192.242 499.004 188.727C495.489 185.211 493.731 180.966 493.731 175.993C493.731 171.02 495.489 166.775 499.004 163.26C502.52 159.744 506.764 157.986 511.738 157.986C516.668 157.986 520.913 159.744 524.471 163.26C527.987 166.775 529.745 171.02 529.745 175.993V190.656C529.745 191.578 529.412 192.371 528.748 193.035C528.105 193.678 527.322 194 526.401 194C525.457 194 524.653 193.678 523.989 193.035C523.346 192.371 523.024 191.578 523.024 190.656ZM541.385 184.546C541.985 185.275 542.478 185.758 542.864 185.993C544.129 186.851 545.672 187.28 547.494 187.28C549.316 187.28 550.838 186.829 552.06 185.929C553.282 185.029 553.893 184.064 553.893 183.035C553.893 181.77 553.271 180.645 552.028 179.659C550.806 178.651 549.295 178.148 547.494 178.148C546.573 178.148 545.779 177.826 545.115 177.183C544.472 176.518 544.15 175.725 544.15 174.803C544.15 173.86 544.472 173.067 545.115 172.424C545.779 171.759 546.573 171.427 547.494 171.427C549.359 171.427 550.892 171.116 552.092 170.495C553.293 169.852 553.893 169.144 553.893 168.372C553.893 167.386 553.282 166.54 552.06 165.832C550.86 165.103 549.338 164.739 547.494 164.739C545.672 164.739 544.129 165.157 542.864 165.993C542.349 166.357 541.899 166.818 541.513 167.376C541.363 167.569 541.192 167.761 540.999 167.954C540.334 168.619 539.541 168.951 538.619 168.951C537.698 168.951 536.905 168.63 536.24 167.987C535.597 167.322 535.275 166.529 535.275 165.607C535.275 164.943 535.447 164.342 535.79 163.806C536.411 162.82 537.248 161.898 538.298 161.041C540.849 159.026 543.914 158.018 547.494 158.018C551.074 158.018 554.15 158.994 556.723 160.945C559.317 162.895 560.614 165.371 560.614 168.372C560.614 171.438 559.467 173.624 557.173 174.932C559.467 176.947 560.614 179.648 560.614 183.035C560.614 186.015 559.327 188.587 556.755 190.752C554.183 192.917 551.096 194 547.494 194C543.914 194 540.849 192.982 538.298 190.945C537.355 190.195 536.583 189.391 535.983 188.534C535.554 187.955 535.34 187.29 535.34 186.54C535.34 185.618 535.661 184.825 536.304 184.161C536.969 183.496 537.762 183.164 538.684 183.164C539.841 183.164 540.742 183.625 541.385 184.546ZM581.225 172.649C581.739 172.649 582.233 172.553 582.704 172.36C583.197 172.145 583.626 171.867 583.99 171.524C584.355 171.159 584.644 170.741 584.859 170.27C585.073 169.776 585.18 169.241 585.18 168.662C585.18 168.126 585.073 167.622 584.859 167.15C584.644 166.657 584.355 166.239 583.99 165.896C583.647 165.532 583.229 165.243 582.736 165.028C582.265 164.814 581.761 164.707 581.225 164.707H572.35V172.649H581.225ZM583.669 187.28C584.205 187.28 584.708 187.183 585.18 186.99C585.673 186.776 586.091 186.486 586.434 186.122C586.799 185.758 587.088 185.34 587.302 184.868C587.517 184.396 587.624 183.882 587.624 183.325C587.624 182.767 587.517 182.242 587.302 181.749C587.088 181.256 586.799 180.838 586.434 180.495C586.07 180.13 585.641 179.852 585.148 179.659C584.676 179.444 584.183 179.337 583.669 179.337H572.35V187.28H583.669ZM581.225 157.986C582.683 157.986 584.055 158.276 585.341 158.854C586.648 159.412 587.785 160.173 588.749 161.137C589.714 162.102 590.475 163.238 591.032 164.546C591.611 165.832 591.9 167.204 591.9 168.662C591.9 170.956 591.29 172.971 590.068 174.707C590.775 175.35 591.397 175.993 591.933 176.636C592.469 177.279 592.908 177.944 593.251 178.63C593.615 179.316 593.883 180.045 594.055 180.816C594.248 181.567 594.344 182.403 594.344 183.325C594.344 184.782 594.066 186.165 593.508 187.473C592.951 188.759 592.19 189.884 591.225 190.849C590.261 191.813 589.124 192.585 587.817 193.164C586.531 193.721 585.148 194 583.669 194H569.006C568.534 194 568.095 193.914 567.688 193.743C567.28 193.571 566.927 193.335 566.627 193.035C566.326 192.714 566.091 192.349 565.919 191.942C565.748 191.535 565.662 191.106 565.662 190.656V161.33C565.662 160.88 565.748 160.452 565.919 160.044C566.091 159.637 566.326 159.283 566.627 158.983C566.927 158.662 567.28 158.415 567.688 158.244C568.095 158.072 568.534 157.986 569.006 157.986H581.225ZM629.361 194C628.397 194 627.603 193.678 626.982 193.035C626.36 192.392 626.038 191.61 626.017 190.688C624.538 191.846 622.973 192.692 621.322 193.228C619.672 193.743 617.882 194 615.953 194C613.659 194 611.494 193.561 609.457 192.682C607.421 191.781 605.641 190.57 604.119 189.048C602.597 187.526 601.386 185.747 600.486 183.71C599.607 181.674 599.168 179.509 599.168 177.215V161.33C599.168 160.409 599.489 159.626 600.132 158.983C600.797 158.319 601.601 157.986 602.544 157.986C603.466 157.986 604.248 158.319 604.891 158.983C605.556 159.626 605.888 160.409 605.888 161.33V177.215C605.888 178.608 606.145 179.916 606.66 181.138C607.196 182.36 607.914 183.432 608.814 184.353C609.736 185.254 610.808 185.972 612.03 186.508C613.251 187.022 614.559 187.28 615.953 187.28C617.324 187.28 618.621 187.022 619.843 186.508C621.065 185.972 622.137 185.243 623.059 184.321C623.981 183.4 624.699 182.338 625.213 181.138C625.749 179.916 626.017 178.608 626.017 177.215V161.33C626.017 160.409 626.339 159.626 626.982 158.983C627.646 158.319 628.45 157.986 629.393 157.986C630.315 157.986 631.098 158.319 631.741 158.983C632.405 159.626 632.737 160.409 632.737 161.33V190.656C632.737 191.578 632.405 192.371 631.741 193.035C631.098 193.678 630.304 194 629.361 194ZM653.252 172.649C653.767 172.649 654.26 172.553 654.732 172.36C655.225 172.145 655.653 171.867 656.018 171.524C656.382 171.159 656.672 170.741 656.886 170.27C657.1 169.776 657.208 169.241 657.208 168.662C657.208 168.126 657.1 167.622 656.886 167.15C656.672 166.657 656.382 166.239 656.018 165.896C655.675 165.532 655.257 165.243 654.764 165.028C654.292 164.814 653.788 164.707 653.252 164.707H644.378V172.649H653.252ZM655.696 187.28C656.232 187.28 656.736 187.183 657.208 186.99C657.701 186.776 658.119 186.486 658.462 186.122C658.826 185.758 659.115 185.34 659.33 184.868C659.544 184.396 659.651 183.882 659.651 183.325C659.651 182.767 659.544 182.242 659.33 181.749C659.115 181.256 658.826 180.838 658.462 180.495C658.097 180.13 657.668 179.852 657.175 179.659C656.704 179.444 656.211 179.337 655.696 179.337H644.378V187.28H655.696ZM653.252 157.986C654.71 157.986 656.082 158.276 657.368 158.854C658.676 159.412 659.812 160.173 660.777 161.137C661.741 162.102 662.502 163.238 663.06 164.546C663.639 165.832 663.928 167.204 663.928 168.662C663.928 170.956 663.317 172.971 662.095 174.707C662.803 175.35 663.424 175.993 663.96 176.636C664.496 177.279 664.935 177.944 665.278 178.63C665.643 179.316 665.911 180.045 666.082 180.816C666.275 181.567 666.372 182.403 666.372 183.325C666.372 184.782 666.093 186.165 665.536 187.473C664.978 188.759 664.217 189.884 663.253 190.849C662.288 191.813 661.152 192.585 659.844 193.164C658.558 193.721 657.175 194 655.696 194H641.033C640.562 194 640.122 193.914 639.715 193.743C639.308 193.571 638.954 193.335 638.654 193.035C638.354 192.714 638.118 192.349 637.947 191.942C637.775 191.535 637.689 191.106 637.689 190.656V161.33C637.689 160.88 637.775 160.452 637.947 160.044C638.118 159.637 638.354 159.283 638.654 158.983C638.954 158.662 639.308 158.415 639.715 158.244C640.122 158.072 640.562 157.986 641.033 157.986H653.252ZM689.234 164.707C687.648 164.707 686.169 165.007 684.797 165.607C683.425 166.207 682.235 167.022 681.227 168.051C680.22 169.058 679.416 170.248 678.816 171.62C678.237 172.992 677.948 174.45 677.948 175.993C677.948 177.537 678.237 178.994 678.816 180.366C679.416 181.738 680.22 182.939 681.227 183.968C682.235 184.975 683.425 185.779 684.797 186.379C686.169 186.979 687.648 187.28 689.234 187.28C690.799 187.28 692.267 186.979 693.639 186.379C695.011 185.779 696.201 184.964 697.208 183.935C698.237 182.906 699.041 181.717 699.62 180.366C700.22 178.994 700.52 177.537 700.52 175.993C700.52 174.45 700.22 173.003 699.62 171.652C699.041 170.28 698.237 169.08 697.208 168.051C696.201 167.022 695.011 166.207 693.639 165.607C692.267 165.007 690.799 164.707 689.234 164.707ZM700.52 190.656V190.013C698.913 191.299 697.166 192.285 695.279 192.971C693.393 193.657 691.378 194 689.234 194C684.261 194 680.016 192.242 676.501 188.727C672.985 185.211 671.227 180.966 671.227 175.993C671.227 171.02 672.985 166.775 676.501 163.26C680.016 159.744 684.261 157.986 689.234 157.986C694.164 157.986 698.409 159.744 701.967 163.26C705.483 166.775 707.241 171.02 707.241 175.993V190.656C707.241 191.578 706.909 192.371 706.244 193.035C705.601 193.678 704.819 194 703.897 194C702.954 194 702.15 193.678 701.485 193.035C700.842 192.371 700.52 191.578 700.52 190.656ZM742.547 194C741.583 194 740.789 193.678 740.168 193.035C739.546 192.392 739.224 191.61 739.203 190.688C737.724 191.846 736.159 192.692 734.508 193.228C732.858 193.743 731.068 194 729.138 194C726.845 194 724.68 193.561 722.643 192.682C720.607 191.781 718.827 190.57 717.305 189.048C715.783 187.526 714.572 185.747 713.672 183.71C712.793 181.674 712.354 179.509 712.354 177.215V161.33C712.354 160.409 712.675 159.626 713.318 158.983C713.983 158.319 714.787 157.986 715.73 157.986C716.652 157.986 717.434 158.319 718.077 158.983C718.742 159.626 719.074 160.409 719.074 161.33V177.215C719.074 178.608 719.331 179.916 719.846 181.138C720.382 182.36 721.1 183.432 722 184.353C722.922 185.254 723.994 185.972 725.216 186.508C726.437 187.022 727.745 187.28 729.138 187.28C730.51 187.28 731.807 187.022 733.029 186.508C734.251 185.972 735.323 185.243 736.245 184.321C737.167 183.4 737.885 182.338 738.399 181.138C738.935 179.916 739.203 178.608 739.203 177.215V161.33C739.203 160.409 739.525 159.626 740.168 158.983C740.832 158.319 741.636 157.986 742.579 157.986C743.501 157.986 744.284 158.319 744.927 158.983C745.591 159.626 745.923 160.409 745.923 161.33V190.656C745.923 191.578 745.591 192.371 744.927 193.035C744.284 193.678 743.49 194 742.547 194ZM729.138 154.16C727.659 154.16 726.266 153.956 724.958 153.549C723.672 153.12 722.547 152.541 721.582 151.812C720.617 151.062 719.846 150.183 719.267 149.176C718.71 148.168 718.431 147.086 718.431 145.928C718.431 144.985 718.742 144.192 719.363 143.549C720.006 142.884 720.81 142.552 721.775 142.552C722.74 142.552 723.543 142.873 724.187 143.516C724.658 144.01 724.948 144.588 725.055 145.253C725.119 145.853 725.526 146.357 726.277 146.764C727.07 147.214 728.024 147.439 729.138 147.439C730.253 147.439 731.207 147.214 732 146.764C732.751 146.357 733.147 145.853 733.19 145.253C733.319 144.588 733.619 144.01 734.09 143.516C734.733 142.873 735.537 142.552 736.502 142.552C737.467 142.552 738.26 142.884 738.881 143.549C739.525 144.192 739.846 144.985 739.846 145.928C739.846 147.086 739.557 148.168 738.978 149.176C738.421 150.183 737.66 151.062 736.695 151.812C735.73 152.541 734.594 153.12 733.286 153.549C732 153.956 730.618 154.16 729.138 154.16ZM778.368 183.807C779.333 183.807 780.126 184.128 780.747 184.771C781.391 185.393 781.712 186.186 781.712 187.151C781.712 188.094 781.358 188.919 780.651 189.627C777.328 192.542 773.416 194 768.914 194C763.941 194 759.697 192.242 756.181 188.727C752.665 185.211 750.908 180.966 750.908 175.993C750.908 171.02 752.665 166.775 756.181 163.26C759.697 159.744 763.941 157.986 768.914 157.986C773.438 157.986 777.35 159.444 780.651 162.359C781.423 163.045 781.809 163.892 781.809 164.9C781.809 165.864 781.487 166.668 780.844 167.311C780.222 167.954 779.429 168.276 778.464 168.276C777.65 168.276 776.921 168.019 776.278 167.504C775.185 166.582 774.038 165.886 772.837 165.414C771.637 164.943 770.329 164.707 768.914 164.707C767.349 164.707 765.881 165.007 764.509 165.607C763.137 166.186 761.937 166.99 760.908 168.019C759.879 169.026 759.064 170.216 758.464 171.588C757.885 172.96 757.596 174.428 757.596 175.993C757.596 177.558 757.885 179.026 758.464 180.398C759.064 181.77 759.879 182.971 760.908 184C761.937 185.007 763.137 185.811 764.509 186.411C765.881 186.99 767.349 187.28 768.914 187.28C770.329 187.28 771.637 187.054 772.837 186.604C774.038 186.133 775.174 185.436 776.246 184.514C776.846 184.064 777.553 183.828 778.368 183.807ZM807.597 172.649V164.707H798.754C798.176 164.707 797.64 164.825 797.147 165.06C796.653 165.275 796.225 165.575 795.86 165.961C795.517 166.325 795.249 166.743 795.056 167.215C794.864 167.686 794.767 168.169 794.767 168.662C794.767 169.198 794.864 169.712 795.056 170.205C795.271 170.677 795.56 171.095 795.925 171.459C796.289 171.824 796.707 172.113 797.179 172.327C797.672 172.542 798.197 172.649 798.754 172.649H807.597ZM810.941 157.986C811.413 157.986 811.852 158.072 812.259 158.244C812.667 158.415 813.02 158.662 813.321 158.983C813.621 159.283 813.856 159.637 814.028 160.044C814.221 160.452 814.317 160.88 814.317 161.33V190.656C814.317 191.106 814.221 191.535 814.028 191.942C813.856 192.349 813.621 192.714 813.321 193.035C813.02 193.335 812.667 193.571 812.259 193.743C811.852 193.914 811.413 194 810.941 194C810.491 194 810.062 193.914 809.655 193.743C809.248 193.571 808.883 193.335 808.562 193.035C808.261 192.714 808.026 192.349 807.854 191.942C807.683 191.535 807.597 191.106 807.597 190.656V179.337H801.198C799.676 179.337 798.486 180.077 797.629 181.556L792.034 191.974C791.326 193.325 790.308 194 788.979 194C788.508 194 788.068 193.914 787.661 193.743C787.253 193.571 786.9 193.335 786.6 193.035C786.3 192.714 786.064 192.349 785.892 191.942C785.721 191.535 785.635 191.106 785.635 190.656C785.635 189.991 785.796 189.402 786.117 188.887L791.68 178.373C791.873 177.987 792.098 177.622 792.355 177.279C791.648 176.636 791.026 175.993 790.49 175.35C789.955 174.707 789.504 174.042 789.14 173.356C788.797 172.67 788.529 171.942 788.336 171.17C788.165 170.398 788.079 169.562 788.079 168.662C788.079 167.183 788.357 165.8 788.915 164.514C789.494 163.206 790.265 162.07 791.23 161.105C792.195 160.141 793.32 159.38 794.606 158.822C795.914 158.265 797.297 157.986 798.754 157.986H810.941Z" fill="#00E0FF"/>
<path d="M492.795 124.592V79.9603C492.795 79.4887 492.71 79.0492 492.538 78.6419C492.367 78.2132 492.12 77.8488 491.798 77.5486C491.498 77.2271 491.145 76.9806 490.737 76.8091C490.33 76.6376 489.88 76.5518 489.387 76.5518C488.379 76.5518 487.5 76.9698 486.75 77.8059L458.1 114.688V79.9603C458.1 79.0171 457.768 78.2132 457.103 77.5486C456.439 76.8841 455.635 76.5518 454.691 76.5518C453.748 76.5518 452.944 76.8841 452.28 77.5486C451.615 78.2132 451.283 79.0171 451.283 79.9603V124.592C451.283 125.085 451.369 125.535 451.54 125.942C451.712 126.349 451.948 126.714 452.248 127.035C452.569 127.335 452.934 127.571 453.341 127.743C453.77 127.914 454.22 128 454.691 128C455.699 128 456.567 127.603 457.296 126.81L485.978 89.9284V124.592C485.978 125.535 486.311 126.339 486.975 127.003C487.64 127.668 488.444 128 489.387 128C490.33 128 491.134 127.668 491.798 127.003C492.463 126.339 492.795 125.535 492.795 124.592ZM504.403 124.656C504.403 125.106 504.318 125.535 504.146 125.942C503.975 126.349 503.739 126.714 503.439 127.035C503.138 127.335 502.785 127.571 502.377 127.743C501.97 127.914 501.531 128 501.059 128C500.588 128 500.148 127.914 499.741 127.743C499.333 127.571 498.98 127.335 498.68 127.035C498.38 126.714 498.144 126.349 497.972 125.942C497.801 125.535 497.715 125.106 497.715 124.656V102.662C497.715 101.183 497.994 99.8 498.551 98.5138C499.13 97.2061 499.902 96.07 500.866 95.1053C501.831 94.1407 502.956 93.3797 504.242 92.8223C505.55 92.265 506.933 91.9863 508.39 91.9863H518.166C518.616 91.9863 519.045 92.072 519.452 92.2435C519.859 92.415 520.213 92.6615 520.513 92.9831C520.835 93.2832 521.081 93.6369 521.253 94.0442C521.424 94.4515 521.51 94.8802 521.51 95.3304C521.51 95.802 521.424 96.2415 521.253 96.6488C521.081 97.0561 520.835 97.4205 520.513 97.742C520.213 98.0422 519.859 98.278 519.452 98.4495C519.045 98.6209 518.616 98.7067 518.166 98.7067H508.39C507.812 98.7067 507.276 98.8246 506.783 99.0604C506.29 99.2748 505.861 99.5749 505.497 99.9607C505.154 100.325 504.886 100.743 504.693 101.215C504.5 101.686 504.403 102.169 504.403 102.662V124.656ZM531.478 109.993C531.478 111.537 531.767 112.994 532.346 114.366C532.946 115.738 533.75 116.939 534.758 117.968C535.765 118.975 536.955 119.779 538.327 120.379C539.699 120.979 541.178 121.28 542.764 121.28C544.329 121.28 545.798 120.979 547.17 120.379C548.541 119.779 549.731 118.964 550.739 117.935C551.768 116.906 552.572 115.717 553.15 114.366C553.751 112.994 554.051 111.537 554.051 109.993C554.051 108.45 553.751 107.003 553.15 105.652C552.572 104.28 551.768 103.08 550.739 102.051C549.731 101.022 548.541 100.207 547.17 99.607C545.798 99.0068 544.329 98.7067 542.764 98.7067C541.178 98.7067 539.699 99.0068 538.327 99.607C536.955 100.207 535.765 101.022 534.758 102.051C533.75 103.058 532.946 104.248 532.346 105.62C531.767 106.992 531.478 108.45 531.478 109.993ZM542.764 128C538.456 128 534.693 126.682 531.478 124.045V140.09C531.478 141.055 531.146 141.848 530.481 142.47C529.838 143.113 529.045 143.434 528.102 143.434C527.137 143.434 526.333 143.113 525.69 142.47C525.068 141.848 524.757 141.055 524.757 140.09V109.993C524.757 105.02 526.515 100.775 530.031 97.2597C533.546 93.7441 537.791 91.9863 542.764 91.9863C547.695 91.9863 551.939 93.7441 555.498 97.2597C557.256 98.9961 558.574 100.936 559.453 103.08C560.332 105.202 560.771 107.506 560.771 109.993C560.771 115.009 559.013 119.254 555.498 122.727C553.697 124.506 551.736 125.835 549.613 126.714C547.513 127.571 545.23 128 542.764 128ZM583.923 98.7067C582.337 98.7067 580.857 99.0068 579.485 99.607C578.113 100.207 576.924 101.022 575.916 102.051C574.909 103.058 574.105 104.248 573.505 105.62C572.926 106.992 572.636 108.45 572.636 109.993C572.636 111.537 572.926 112.994 573.505 114.366C574.105 115.738 574.909 116.939 575.916 117.968C576.924 118.975 578.113 119.779 579.485 120.379C580.857 120.979 582.337 121.28 583.923 121.28C585.488 121.28 586.956 120.979 588.328 120.379C589.7 119.779 590.89 118.964 591.897 117.935C592.926 116.906 593.73 115.717 594.309 114.366C594.909 112.994 595.209 111.537 595.209 109.993C595.209 108.45 594.909 107.003 594.309 105.652C593.73 104.28 592.926 103.08 591.897 102.051C590.89 101.022 589.7 100.207 588.328 99.607C586.956 99.0068 585.488 98.7067 583.923 98.7067ZM595.209 124.656V124.013C593.602 125.299 591.854 126.285 589.968 126.971C588.082 127.657 586.067 128 583.923 128C578.95 128 574.705 126.242 571.189 122.727C567.674 119.211 565.916 114.966 565.916 109.993C565.916 105.02 567.674 100.775 571.189 97.2597C574.705 93.7441 578.95 91.9863 583.923 91.9863C588.853 91.9863 593.098 93.7441 596.656 97.2597C600.172 100.775 601.93 105.02 601.93 109.993V124.656C601.93 125.578 601.597 126.371 600.933 127.035C600.29 127.678 599.507 128 598.586 128C597.642 128 596.838 127.678 596.174 127.035C595.531 126.371 595.209 125.578 595.209 124.656ZM637.236 128C636.271 128 635.478 127.678 634.857 127.035C634.235 126.392 633.913 125.61 633.892 124.688C632.413 125.846 630.848 126.692 629.197 127.228C627.547 127.743 625.757 128 623.827 128C621.534 128 619.368 127.561 617.332 126.682C615.296 125.781 613.516 124.57 611.994 123.048C610.472 121.526 609.261 119.747 608.361 117.71C607.482 115.674 607.042 113.509 607.042 111.215V95.3304C607.042 94.4086 607.364 93.6262 608.007 92.9831C608.672 92.3185 609.475 91.9863 610.419 91.9863C611.34 91.9863 612.123 92.3185 612.766 92.9831C613.431 93.6262 613.763 94.4086 613.763 95.3304V111.215C613.763 112.608 614.02 113.916 614.534 115.138C615.07 116.36 615.789 117.432 616.689 118.353C617.611 119.254 618.683 119.972 619.904 120.508C621.126 121.022 622.434 121.28 623.827 121.28C625.199 121.28 626.496 121.022 627.718 120.508C628.94 119.972 630.012 119.243 630.934 118.321C631.855 117.4 632.574 116.338 633.088 115.138C633.624 113.916 633.892 112.608 633.892 111.215V95.3304C633.892 94.4086 634.213 93.6262 634.857 92.9831C635.521 92.3185 636.325 91.9863 637.268 91.9863C638.19 91.9863 638.972 92.3185 639.615 92.9831C640.28 93.6262 640.612 94.4086 640.612 95.3304V124.656C640.612 125.578 640.28 126.371 639.615 127.035C638.972 127.678 638.179 128 637.236 128ZM623.827 88.1598C622.348 88.1598 620.955 87.9562 619.647 87.5489C618.361 87.1201 617.236 86.5413 616.271 85.8125C615.306 85.0622 614.534 84.1833 613.956 83.1758C613.398 82.1683 613.12 81.0857 613.12 79.9281C613.12 78.9849 613.431 78.1917 614.052 77.5486C614.695 76.8841 615.499 76.5518 616.464 76.5518C617.428 76.5518 618.232 76.8734 618.875 77.5165C619.347 78.0095 619.636 78.5883 619.744 79.2529C619.808 79.8531 620.215 80.3568 620.966 80.7641C621.759 81.2143 622.713 81.4394 623.827 81.4394C624.942 81.4394 625.896 81.2143 626.689 80.7641C627.439 80.3568 627.836 79.8531 627.879 79.2529C628.007 78.5883 628.308 78.0095 628.779 77.5165C629.422 76.8734 630.226 76.5518 631.191 76.5518C632.155 76.5518 632.949 76.8841 633.57 77.5486C634.213 78.1917 634.535 78.9849 634.535 79.9281C634.535 81.0857 634.246 82.1683 633.667 83.1758C633.109 84.1833 632.348 85.0622 631.384 85.8125C630.419 86.5413 629.283 87.1201 627.975 87.5489C626.689 87.9562 625.306 88.1598 623.827 88.1598ZM695.115 128C694.151 128 693.357 127.678 692.736 127.035C692.114 126.392 691.793 125.61 691.771 124.688C690.292 125.846 688.727 126.692 687.076 127.228C685.426 127.743 683.636 128 681.707 128C679.413 128 677.248 127.561 675.211 126.682C673.175 125.781 671.395 124.57 669.873 123.048C668.351 121.526 667.14 119.747 666.24 117.71C665.361 115.674 664.922 113.509 664.922 111.215V95.3304C664.922 94.4086 665.243 93.6262 665.886 92.9831C666.551 92.3185 667.355 91.9863 668.298 91.9863C669.22 91.9863 670.002 92.3185 670.645 92.9831C671.31 93.6262 671.642 94.4086 671.642 95.3304V111.215C671.642 112.608 671.899 113.916 672.414 115.138C672.95 116.36 673.668 117.432 674.568 118.353C675.49 119.254 676.562 119.972 677.784 120.508C679.005 121.022 680.313 121.28 681.707 121.28C683.078 121.28 684.375 121.022 685.597 120.508C686.819 119.972 687.891 119.243 688.813 118.321C689.735 117.4 690.453 116.338 690.967 115.138C691.503 113.916 691.771 112.608 691.771 111.215V95.3304C691.771 94.4086 692.093 93.6262 692.736 92.9831C693.4 92.3185 694.204 91.9863 695.147 91.9863C696.069 91.9863 696.852 92.3185 697.495 92.9831C698.159 93.6262 698.491 94.4086 698.491 95.3304V124.656C698.491 125.578 698.159 126.371 697.495 127.035C696.852 127.678 696.058 128 695.115 128Z" fill="#00E0FF"/>
<rect y="140.481" width="53.7893" height="53.7893" fill="#D3582D"/>
<rect x="53.7881" y="140.481" width="53.7893" height="53.7893" fill="#FAC932"/>
<rect x="53.7881" y="86.6913" width="53.7893" height="53.7893" fill="#FF6C35"/>
<rect x="107.578" y="86.6913" width="53.7893" height="53.7893" fill="#008A7D"/>
<rect x="107.578" y="13" width="53.7893" height="53.7893" fill="#FF0000"/>
<rect x="107.578" y="140.481" width="53.7893" height="53.7893" fill="#288BBE"/>
</svg>
