<svg width="127" height="56" viewBox="0 0 127 56" fill="none" xmlns="http://www.w3.org/2000/svg">
<rect x="83.1221" y="40.5675" width="14.5854" height="14.5854" fill="#D3582D"/>
<rect x="97.707" y="40.5675" width="14.5854" height="14.5854" fill="#FAC932"/>
<rect x="97.707" y="25.9821" width="14.5854" height="14.5854" fill="#FF6C35"/>
<rect x="112.293" y="25.9821" width="14.5854" height="14.5854" fill="#008A7D"/>
<rect x="112.293" y="6" width="14.5854" height="14.5854" fill="#FF0000"/>
<rect x="112.293" y="40.5675" width="14.5854" height="14.5854" fill="#288BBE"/>
<path d="M20.7129 51.2793C20.7129 51.6895 20.5518 52.0605 20.2295 52.3926C18.0518 54.1309 15.5957 55 12.8613 55C9.61914 55 6.85547 53.8574 4.57031 51.5723C2.28516 49.2871 1.14258 46.5234 1.14258 43.2812C1.14258 40.0488 2.28516 37.29 4.57031 35.0049C6.86523 32.71 9.62891 31.5625 12.8613 31.5625C15.6348 31.5625 18.1396 32.4756 20.376 34.3018C20.6494 34.5557 20.7861 34.9121 20.7861 35.3711C20.7861 35.5957 20.7471 35.8008 20.6689 35.9863C20.5908 36.1719 20.4785 36.3379 20.332 36.4844C20.1953 36.6211 20.0293 36.7285 19.834 36.8066C19.6484 36.8848 19.4482 36.9238 19.2334 36.9238C18.833 36.9238 18.4766 36.7773 18.1641 36.4844C17.4219 35.8984 16.6016 35.4492 15.7031 35.1367C14.8145 34.8242 13.8672 34.668 12.8613 34.668C10.4785 34.668 8.44238 35.5127 6.75293 37.2021C5.08301 38.8721 4.24805 40.8984 4.24805 43.2812C4.24805 45.6738 5.08301 47.7051 6.75293 49.375C8.43262 51.0547 10.4688 51.8945 12.8613 51.8945C14.6289 51.8945 16.2109 51.4307 17.6074 50.5029V45.9619H13.5645C13.125 45.9619 12.7539 45.8154 12.4512 45.5225C12.1582 45.2197 12.0117 44.8486 12.0117 44.4092C12.0117 44.1943 12.0508 43.9941 12.1289 43.8086C12.207 43.6133 12.3145 43.4473 12.4512 43.3105C12.5977 43.1641 12.7637 43.0518 12.9492 42.9736C13.1348 42.8955 13.3398 42.8564 13.5645 42.8564H19.1748C19.3799 42.8564 19.5752 42.9004 19.7607 42.9883C19.9463 43.0664 20.1074 43.1787 20.2441 43.3252C20.3906 43.4619 20.5029 43.6279 20.5811 43.8232C20.6689 44.0088 20.7129 44.2041 20.7129 44.4092V51.2793ZM26.1475 40.1172V40.4102C26.8799 39.8242 27.6758 39.375 28.5352 39.0625C29.3945 38.75 30.3125 38.5938 31.2891 38.5938C31.7188 38.5938 32.1777 38.623 32.666 38.6816C33.1641 38.7402 33.6182 38.8477 34.0283 39.0039C34.4482 39.1504 34.7949 39.3555 35.0684 39.6191C35.3418 39.8828 35.4785 40.2246 35.4785 40.6445C35.4785 40.8594 35.4346 41.0596 35.3467 41.2451C35.2686 41.4307 35.1611 41.5967 35.0244 41.7432C34.8877 41.8799 34.7266 41.9873 34.541 42.0654C34.3555 42.1436 34.1553 42.1826 33.9404 42.1826C33.7549 42.1826 33.54 42.1289 33.2959 42.0215C32.6807 41.7773 32.0117 41.6553 31.2891 41.6553C30.5762 41.6553 29.9072 41.792 29.2822 42.0654C28.6572 42.3291 28.1104 42.6953 27.6416 43.1641C27.1826 43.623 26.8164 44.165 26.543 44.79C26.2793 45.415 26.1475 46.084 26.1475 46.7969V53.4766C26.1475 53.8965 25.9961 54.2578 25.6934 54.5605C25.4004 54.8535 25.0439 55 24.624 55C24.1943 55 23.8281 54.8535 23.5254 54.5605C23.2324 54.2578 23.0859 53.8965 23.0859 53.4766V40.1172C23.0859 39.6973 23.2324 39.3408 23.5254 39.0479C23.8281 38.7451 24.1943 38.5938 24.624 38.5938C25.0439 38.5938 25.4004 38.7451 25.6934 39.0479C25.9961 39.3408 26.1475 39.6973 26.1475 40.1172ZM53.6133 46.7969C53.6133 49.082 52.8125 51.0156 51.2109 52.5977C49.5898 54.1992 47.6562 55 45.4102 55C43.1445 55 41.2109 54.1992 39.6094 52.5977C38.0078 50.9961 37.207 49.0625 37.207 46.7969C37.207 44.5312 38.0078 42.5977 39.6094 40.9961C41.2109 39.3945 43.1445 38.5938 45.4102 38.5938C47.6562 38.5938 49.5898 39.3945 51.2109 40.9961C52.0117 41.7969 52.6074 42.6807 52.998 43.6475C53.3984 44.6143 53.6035 45.6641 53.6133 46.7969ZM45.4102 41.6553C44.6875 41.6553 44.0137 41.792 43.3887 42.0654C42.7637 42.3389 42.2217 42.71 41.7627 43.1787C41.3037 43.6377 40.9375 44.1797 40.6641 44.8047C40.4004 45.4297 40.2686 46.0938 40.2686 46.7969C40.2686 47.5 40.4004 48.1641 40.6641 48.7891C40.9375 49.4141 41.3037 49.9609 41.7627 50.4297C42.2217 50.8887 42.7637 51.2549 43.3887 51.5283C44.0137 51.8018 44.6875 51.9385 45.4102 51.9385C46.123 51.9385 46.792 51.8018 47.417 51.5283C48.042 51.2549 48.584 50.8838 49.043 50.415C49.5117 49.9463 49.8779 49.4043 50.1416 48.7891C50.415 48.1641 50.5518 47.5 50.5518 46.7969C50.5518 46.0938 50.415 45.4346 50.1416 44.8193C49.8779 44.1943 49.5117 43.6475 49.043 43.1787C48.584 42.71 48.042 42.3389 47.417 42.0654C46.792 41.792 46.123 41.6553 45.4102 41.6553ZM66.4453 38.5938C67.168 38.5938 67.6562 38.9697 67.9102 39.7217L70.8838 48.6426L73.96 39.4434C74.0381 39.1895 74.1943 38.9844 74.4287 38.8281C74.6631 38.6719 74.9658 38.5938 75.3369 38.5938C75.5518 38.5938 75.752 38.6328 75.9375 38.7109C76.123 38.7891 76.2842 38.9014 76.4209 39.0479C76.5576 39.1846 76.665 39.3457 76.7432 39.5312C76.8311 39.7168 76.875 39.9121 76.875 40.1172C76.875 40.3027 76.8359 40.498 76.7578 40.7031L72.3193 54.0186C72.2314 54.3018 72.0703 54.5361 71.8359 54.7217C71.6016 54.9072 71.2842 55 70.8838 55C70.542 55 70.2393 54.9023 69.9756 54.707C69.7119 54.5117 69.541 54.2822 69.4629 54.0186L66.4453 44.9658L63.4277 54.0186C63.3398 54.3018 63.1641 54.5361 62.9004 54.7217C62.6367 54.9072 62.334 55 61.9922 55C61.6504 55 61.3477 54.9072 61.084 54.7217C60.8301 54.5361 60.6543 54.3018 60.5566 54.0186L56.1182 40.7031C56.0498 40.4883 56.0156 40.293 56.0156 40.1172C56.0156 39.9121 56.0547 39.7168 56.1328 39.5312C56.2109 39.3457 56.3184 39.1846 56.4551 39.0479C56.5918 38.9014 56.7529 38.7891 56.9385 38.7109C57.124 38.6328 57.3242 38.5938 57.5391 38.5938C57.8906 38.5938 58.1836 38.6768 58.418 38.8428C58.6621 39.0088 58.8281 39.209 58.916 39.4434L61.9922 48.6279L64.9658 39.7217C65.2197 38.9697 65.7129 38.5938 66.4453 38.5938Z" fill="#34EA31"/>
<path d="M25.0986 9.11523C25.0986 8.68555 25.25 8.31934 25.5527 8.0166C25.8555 7.71387 26.2217 7.5625 26.6514 7.5625C27.0811 7.5625 27.4473 7.71387 27.75 8.0166C28.0527 8.31934 28.2041 8.68555 28.2041 9.11523V27.8945H39.0732C39.5029 27.8945 39.8691 28.0459 40.1719 28.3486C40.4746 28.6514 40.626 29.0176 40.626 29.4473C40.626 29.877 40.4746 30.2432 40.1719 30.5459C39.8691 30.8486 39.5029 31 39.0732 31H26.6514C26.4268 31 26.2217 30.9609 26.0361 30.8828C25.8506 30.8047 25.6846 30.6973 25.5381 30.5605C25.4014 30.4141 25.2939 30.248 25.2158 30.0625C25.1377 29.877 25.0986 29.6719 25.0986 29.4473V9.11523ZM54.6885 21.2734C54.5225 20.7363 54.2734 20.248 53.9414 19.8086C53.6191 19.3594 53.2383 18.9785 52.7988 18.666C52.3691 18.3438 51.8906 18.0947 51.3633 17.9189C50.8457 17.7432 50.3086 17.6553 49.752 17.6553C49.1953 17.6553 48.6533 17.7432 48.126 17.9189C47.5986 18.0947 47.1152 18.3438 46.6758 18.666C46.2363 18.9785 45.8555 19.3594 45.5332 19.8086C45.2109 20.248 44.9717 20.7363 44.8154 21.2734H54.6885ZM54.0293 26.3857C54.4688 26.3857 54.8301 26.5322 55.1133 26.8252C55.4062 27.1084 55.5527 27.4697 55.5527 27.9092C55.5527 28.3389 55.4062 28.7051 55.1133 29.0078C53.5996 30.3359 51.8125 31 49.752 31C47.4863 31 45.5527 30.1992 43.9512 28.5977C42.3496 26.9961 41.5488 25.0625 41.5488 22.7969C41.5488 20.5312 42.3496 18.5977 43.9512 16.9961C45.5527 15.3945 47.4863 14.5938 49.752 14.5938C51.998 14.5938 53.9316 15.3945 55.5527 16.9961C56.3535 17.7871 56.9541 18.6709 57.3545 19.6475C57.7549 20.6143 57.9551 21.6641 57.9551 22.7969C57.9551 23.2363 57.8037 23.6025 57.501 23.8955C57.208 24.1787 56.8467 24.3203 56.417 24.3203H44.8154C44.9814 24.8574 45.2256 25.3506 45.5479 25.7998C45.8701 26.2393 46.2461 26.6201 46.6758 26.9424C47.1152 27.2549 47.5938 27.499 48.1113 27.6748C48.6387 27.8506 49.1855 27.9385 49.752 27.9385C50.3965 27.9385 50.9873 27.8408 51.5244 27.6455C52.0615 27.4502 52.5596 27.1572 53.0186 26.7666C53.3115 26.5225 53.6484 26.3955 54.0293 26.3857ZM61.7344 14.5938H62.4229V9.08594C62.4229 8.66602 62.5693 8.30957 62.8623 8.0166C63.165 7.71387 63.5312 7.5625 63.9609 7.5625C64.3809 7.5625 64.7373 7.71387 65.0303 8.0166C65.333 8.30957 65.4844 8.66602 65.4844 9.08594V14.5938H67.3154C67.7354 14.5938 68.0918 14.7451 68.3848 15.0479C68.6777 15.3408 68.8242 15.6973 68.8242 16.1172C68.8242 16.5469 68.6777 16.9131 68.3848 17.2158C68.0918 17.5088 67.7354 17.6553 67.3154 17.6553H65.4844V25.0234C65.4844 26.9668 66.4609 27.9385 68.4141 27.9385C68.834 27.9385 69.1904 28.0898 69.4834 28.3926C69.7764 28.6855 69.9229 29.042 69.9229 29.4619C69.9229 29.8916 69.7764 30.2578 69.4834 30.5605C69.1904 30.8535 68.834 31 68.4141 31C64.4199 31 62.4229 29.0078 62.4229 25.0234V17.6553H61.7344C61.3242 17.6553 60.9678 17.5088 60.665 17.2158C60.3721 16.9131 60.2256 16.5469 60.2256 16.1172C60.2256 15.6973 60.3721 15.3408 60.665 15.0479C60.9678 14.7451 61.3242 14.5938 61.7344 14.5938ZM76.3657 12.13C76.8657 12.43 77.1857 12.85 77.3257 13.39C77.4857 13.93 77.4257 14.44 77.1457 14.92L75.2857 18.16C75.0057 18.64 74.5857 18.95 74.0257 19.09C73.4857 19.23 72.9657 19.15 72.4657 18.85C71.9857 18.57 71.6757 18.17 71.5357 17.65C71.3957 17.11 71.4657 16.59 71.7457 16.09L73.6357 12.85C73.8957 12.39 74.2957 12.09 74.8357 11.95C75.3757 11.79 75.8857 11.85 76.3657 12.13ZM82.1836 23.1924C81.2656 22.8408 80.6211 22.4795 80.25 22.1084H80.2646C79.5225 21.3564 79.1514 20.4727 79.1514 19.457C79.1514 18.7148 79.3467 18.0459 79.7373 17.4502C80.1377 16.8447 80.6553 16.332 81.29 15.9121C81.9248 15.4922 82.6377 15.1699 83.4287 14.9453C84.2295 14.7109 85.0303 14.5938 85.8311 14.5938C88.2725 14.5938 90.3672 15.5752 92.1152 17.5381C92.3203 17.792 92.4229 18.0996 92.4229 18.4609C92.4229 18.9004 92.2764 19.2666 91.9834 19.5596C91.7002 19.8428 91.3389 19.9844 90.8994 19.9844C90.5869 19.9844 90.3184 19.8965 90.0938 19.7207C89.8789 19.5449 89.6689 19.3545 89.4639 19.1494C88.4678 18.1533 87.2568 17.6553 85.8311 17.6553C84.4248 17.6553 83.3018 18.085 82.4619 18.9443C82.3057 19.1006 82.2275 19.3154 82.2275 19.5889C82.2275 19.8623 82.3545 20.0479 82.6084 20.1455L89.4639 22.4014C90.4209 22.7725 91.0654 23.1338 91.3975 23.4854H91.3828C92.125 24.2373 92.4961 25.1211 92.4961 26.1367C92.4961 26.8887 92.2959 27.5625 91.8955 28.1582C91.5049 28.7539 90.9922 29.2666 90.3574 29.6963C89.7227 30.1162 89.0098 30.4385 88.2188 30.6631C87.4277 30.8877 86.6318 31 85.8311 31C83.3701 31 81.2754 30.0283 79.5469 28.085C79.332 27.8018 79.2246 27.4844 79.2246 27.1328C79.2246 26.6934 79.3662 26.332 79.6494 26.0488C79.9424 25.7559 80.3086 25.6094 80.748 25.6094C81.0703 25.6094 81.3438 25.707 81.5684 25.9023C81.793 26.0879 81.998 26.2686 82.1836 26.4443C83.1797 27.4404 84.3955 27.9385 85.8311 27.9385C87.2275 27.9385 88.3506 27.499 89.2002 26.6201C89.3467 26.4541 89.4199 26.2539 89.4199 26.0195C89.4199 25.7461 89.2881 25.5557 89.0244 25.4482L82.1836 23.1924Z" fill="#34EA31"/>
</svg>
