<svg width="650" height="1188" viewBox="0 0 650 1188" fill="none" xmlns="http://www.w3.org/2000/svg">
<path style="mix-blend-mode:multiply" d="M649.141 432.502L649.211 468.642L270.561 89.9817L288.591 71.9517L649.141 432.502Z" fill="url(#paint0_linear)"/>
<path d="M468.816 901.318L540.941 829.193L468.817 757.068L396.692 829.193L468.816 901.318Z" fill="#009FC4"/>
<path d="M396.68 973.438L468.805 901.313L396.68 829.189L324.555 901.313L396.68 973.438Z" fill="#288BBE"/>
<path style="mix-blend-mode:multiply" d="M432.837 504.72L414.806 522.751L486.931 594.876L504.962 576.845L432.837 504.72Z" fill="url(#paint1_linear)"/>
<path style="mix-blend-mode:multiply" d="M180.243 36.0628L162.212 54.094L234.337 126.219L252.368 108.188L180.243 36.0628Z" fill="url(#paint2_linear)"/>
<path style="mix-blend-mode:multiply" d="M649.211 144.091L649.091 180.031L469.061 0.00146484L504.871 0.00146484L649.211 144.091Z" fill="url(#paint3_linear)"/>
<path d="M360.712 144.248L432.837 216.373L504.962 144.248L432.837 72.1233L360.712 144.248Z" fill="#FAC932"/>
<path d="M288.582 72.1354L360.707 144.26L432.832 72.1354L360.707 0.010473L288.582 72.1354Z" fill="#F5B02E"/>
<path d="M144.244 793.131L72.1191 865.256L144.244 937.381L216.369 865.256L144.244 793.131Z" fill="#00A58F"/>
<path d="M216.381 721.001L144.256 793.126L216.381 865.251L288.506 793.126L216.381 721.001Z" fill="#008A7D"/>
<path d="M504.959 288.341L577.084 360.466L649.209 288.341L577.084 216.216L504.959 288.341Z" fill="#D3353A"/>
<path d="M432.846 216.211L504.971 288.336L577.096 216.211L504.971 144.086L432.846 216.211Z" fill="#FF494E"/>
<path d="M72.1202 1009.51L144.245 1081.63L216.37 1009.51L144.245 937.383L72.1202 1009.51Z" fill="#D3582D"/>
<path d="M0.000109553 937.371L72.125 1009.5L144.25 937.371L72.125 865.246L0.000109553 937.371Z" fill="#FF6C35"/>
<path d="M577.09 504.723L649.215 432.598L577.09 360.473L504.965 432.598L577.09 504.723Z" fill="#FF6C35"/>
<path d="M504.967 576.842L577.092 504.718L504.967 432.593L432.842 504.718L504.967 576.842Z" fill="#D3582D"/>
<path d="M288.494 648.881L216.369 721.006L288.494 793.131L360.619 721.006L288.494 648.881Z" fill="#FAC932"/>
<path d="M360.631 576.751L288.506 648.876L360.631 721.001L432.756 648.876L360.631 576.751Z" fill="#F5B02E"/>
<path d="M649.21 432.592V288.342L577.09 360.462L649.21 432.592Z" fill="#FAC932"/>
<path d="M288.59 0.00146484L216.46 0.00146484L180.4 36.0615L252.53 108.191L324.65 36.0615L288.59 0.00146484Z" fill="#288BBE"/>
<path d="M252.441 973.445L180.316 1045.57L252.441 1117.7L324.566 1045.57L252.441 973.445Z" fill="#FF494E"/>
<path d="M182.092 1043L109.967 1115.12L182.092 1187.25L254.217 1115.12L182.092 1043Z" fill="#D3353A"/>
<path d="M649.21 793.221L613.06 757.071L540.94 829.191L613.06 901.321L649.21 865.171V793.221Z" fill="#D3353A"/>
<path d="M540.941 684.944L468.816 757.069L540.941 829.194L613.066 757.069L540.941 684.944Z" fill="#FF494E"/>
<path d="M649.211 865.171L613.061 901.321L649.211 937.461V865.171Z" fill="#FF6C35"/>
<path d="M649.21 0.0914648L649.12 0.00146484L649.05 0.00146484L576.96 72.0915L649.09 144.211L649.21 144.091V0.0914648Z" fill="#008A7D"/>
<path style="mix-blend-mode:multiply" d="M288.584 72.1248L324.646 108.187L396.771 36.0624L360.709 -7.98106e-05L288.584 72.1248Z" fill="url(#paint4_linear)"/>
<path style="mix-blend-mode:multiply" d="M432.92 216.301L468.982 252.363L541.107 180.238L505.045 144.176L432.92 216.301Z" fill="url(#paint5_linear)"/>
<path style="mix-blend-mode:multiply" d="M577.09 360.464L541.027 396.526L613.152 468.651L649.215 432.589L577.09 360.464Z" fill="url(#paint6_linear)"/>
<path style="mix-blend-mode:multiply" d="M649.21 288.342L649.05 360.632L613.15 396.532L577.09 360.462L649.21 288.342Z" fill="url(#paint7_linear)"/>
<path style="mix-blend-mode:multiply" d="M288.58 793.223L324.643 757.16L252.518 685.035L216.455 721.098L288.58 793.223Z" fill="url(#paint8_linear)"/>
<path style="mix-blend-mode:multiply" d="M144.258 937.382L180.32 901.319L108.195 829.194L72.133 865.257L144.258 937.382Z" fill="url(#paint9_linear)"/>
<path style="mix-blend-mode:multiply" d="M468.812 757.067L432.75 793.13L504.875 865.255L540.937 829.192L468.812 757.067Z" fill="url(#paint10_linear)"/>
<path style="mix-blend-mode:multiply" d="M613.06 901.321L577 865.251L649.12 793.131L649.21 865.171L613.06 901.321Z" fill="url(#paint11_linear)"/>
<path style="mix-blend-mode:multiply" d="M216.379 1009.5L180.316 973.44L108.192 1045.56L144.254 1081.63L216.379 1009.5Z" fill="url(#paint12_linear)"/>
<defs>
<linearGradient id="paint0_linear" x1="459.88" y1="279.339" x2="477.911" y2="261.307" gradientUnits="userSpaceOnUse">
<stop stop-color="white"/>
<stop offset="1" stop-color="#BBBCBF"/>
</linearGradient>
<linearGradient id="paint1_linear" x1="130285" y1="129263" x2="130745" y2="128804" gradientUnits="userSpaceOnUse">
<stop stop-color="white"/>
<stop offset="1" stop-color="#BBBCBF"/>
</linearGradient>
<linearGradient id="paint2_linear" x1="95834.8" y1="89482.6" x2="96294.5" y2="89022.9" gradientUnits="userSpaceOnUse">
<stop stop-color="white"/>
<stop offset="1" stop-color="#BBBCBF"/>
</linearGradient>
<linearGradient id="paint3_linear" x1="251574" y1="141547" x2="254822" y2="138300" gradientUnits="userSpaceOnUse">
<stop stop-color="white"/>
<stop offset="1" stop-color="#BBBCBF"/>
</linearGradient>
<linearGradient id="paint4_linear" x1="202085" y1="134523" x2="200246" y2="132683" gradientUnits="userSpaceOnUse">
<stop stop-color="white"/>
<stop offset="1" stop-color="#BBBCBF"/>
</linearGradient>
<linearGradient id="paint5_linear" x1="209451" y1="141668" x2="207612" y2="139829" gradientUnits="userSpaceOnUse">
<stop stop-color="white"/>
<stop offset="1" stop-color="#BBBCBF"/>
</linearGradient>
<linearGradient id="paint6_linear" x1="95395.9" y1="200482" x2="97235.1" y2="198643" gradientUnits="userSpaceOnUse">
<stop stop-color="white"/>
<stop offset="1" stop-color="#BBBCBF"/>
</linearGradient>
<linearGradient id="paint7_linear" x1="296075" y1="223969" x2="293474" y2="221368" gradientUnits="userSpaceOnUse">
<stop stop-color="white"/>
<stop offset="1" stop-color="#BBBCBF"/>
</linearGradient>
<linearGradient id="paint8_linear" x1="356165" y1="81096.9" x2="354326" y2="82936.1" gradientUnits="userSpaceOnUse">
<stop stop-color="white"/>
<stop offset="1" stop-color="#BBBCBF"/>
</linearGradient>
<linearGradient id="paint9_linear" x1="363238" y1="73836.6" x2="361399" y2="75675.8" gradientUnits="userSpaceOnUse">
<stop stop-color="white"/>
<stop offset="1" stop-color="#BBBCBF"/>
</linearGradient>
<linearGradient id="paint10_linear" x1="97429.9" y1="228419" x2="99269.1" y2="226579" gradientUnits="userSpaceOnUse">
<stop stop-color="white"/>
<stop offset="1" stop-color="#BBBCBF"/>
</linearGradient>
<linearGradient id="paint11_linear" x1="56113.4" y1="-113108" x2="58717.4" y2="-110504" gradientUnits="userSpaceOnUse">
<stop stop-color="white"/>
<stop offset="1" stop-color="#BBBCBF"/>
</linearGradient>
<linearGradient id="paint12_linear" x1="70415.4" y1="-105970" x2="72254.6" y2="-104131" gradientUnits="userSpaceOnUse">
<stop stop-color="white"/>
<stop offset="1" stop-color="#BBBCBF"/>
</linearGradient>
</defs>
</svg>
